<?xml version="1.0" encoding="UTF-8" standalone="no"?>
<!-- Created with Inkscape (http://www.inkscape.org/) -->

<svg
   xmlns:dc="http://purl.org/dc/elements/1.1/"
   xmlns:cc="http://creativecommons.org/ns#"
   xmlns:rdf="http://www.w3.org/1999/02/22-rdf-syntax-ns#"
   xmlns:svg="http://www.w3.org/2000/svg"
   xmlns="http://www.w3.org/2000/svg"
   version="1.1"
   width="39"
   height="25"
   id="svg2">
  <metadata
     id="metadata8">
    <rdf:RDF>
      <cc:Work
         rdf:about="">
        <dc:format>image/svg+xml</dc:format>
        <dc:type
           rdf:resource="http://purl.org/dc/dcmitype/StillImage" />
        <dc:title></dc:title>
      </cc:Work>
    </rdf:RDF>
  </metadata>
  <defs
     id="defs6" />
  <rect
     width="46.423294"
     height="31.46591"
     x="-4.5426135"
     y="-4.3607955"
     id="rect2989"
     style="fill:#000000;fill-opacity:1" />
  <path
     d="m 31,15.497159 0,9.5 3.5,0 3.5,0 0,-9.5 0,-9.4999999 -3.5,0 -3.5,0 0,9.4999999 z m -7,-2 0,11.5 3,0 3,0 0,-11.5 0,-11.4999999 -3,0 -3,0 0,11.4999999 z m -8,2.5 0,9 3.5,0 3.5,0 0,-9 0,-8.9999999 -3.5,0 -3.5,0 0,8.9999999 z m -7,2 0,7 3,0 3,0 0,-7 0,-7 -3,0 -3,0 0,7 z m -8,2 0,5 3.5,0 3.5,0 0,-5 0,-5 -3.5,0 -3.5,0 0,5 z"
     id="path2987"
     style="fill:#ffffff;fill-opacity:0.49275363" />
</svg>
