<?xml version="1.0" encoding="UTF-8" standalone="no"?>
<!-- Created with Inkscape (http://www.inkscape.org/) -->

<svg
   xmlns:dc="http://purl.org/dc/elements/1.1/"
   xmlns:cc="http://creativecommons.org/ns#"
   xmlns:rdf="http://www.w3.org/1999/02/22-rdf-syntax-ns#"
   xmlns:svg="http://www.w3.org/2000/svg"
   xmlns="http://www.w3.org/2000/svg"
   xmlns:sodipodi="http://sodipodi.sourceforge.net/DTD/sodipodi-0.dtd"
   xmlns:inkscape="http://www.inkscape.org/namespaces/inkscape"
   id="svg2"
   version="1.1"
   inkscape:version="0.48.2 r9819"
   width="39"
   height="26"
   sodipodi:docname="om_stream.svg">
  <metadata
     id="metadata8">
    <rdf:RDF>
      <cc:Work
         rdf:about="">
        <dc:format>image/svg+xml</dc:format>
        <dc:type
           rdf:resource="http://purl.org/dc/dcmitype/StillImage" />
        <dc:title></dc:title>
      </cc:Work>
    </rdf:RDF>
  </metadata>
  <defs
     id="defs6" />
  <sodipodi:namedview
     pagecolor="#ffffff"
     bordercolor="#666666"
     borderopacity="1"
     objecttolerance="10"
     gridtolerance="10"
     guidetolerance="10"
     inkscape:pageopacity="0"
     inkscape:pageshadow="2"
     inkscape:window-width="723"
     inkscape:window-height="480"
     id="namedview4"
     showgrid="false"
     inkscape:zoom="3.191046"
     inkscape:cx="16.449377"
     inkscape:cy="15.160348"
     inkscape:window-x="330"
     inkscape:window-y="125"
     inkscape:window-maximized="0"
     inkscape:current-layer="svg2" />
  <rect
     style="fill:#000000;fill-opacity:1"
     id="rect3788"
     width="45.204544"
     height="37.670456"
     x="-3.6562498"
     y="-6.5738649" />
  <path
     style="fill:#ffffff;fill-opacity:0.30917873"
     d="M 37.25,2.375 C 31.464127,3.7292803 25.609344,8.3624334 19.59375,5.1134106 13.625966,3.8447622 8.2292694,10.452277 2.5625,6.7034554 -2.6947421,6.3245899 -2.0950855,13.261237 -1.21875,16.479286 c 1.51799948,3.732323 6.0639552,3.064912 9.0625,2.031724 4.67334,1.367383 9.500936,4.562732 14.5,2.090616 5.825854,-1.847339 11.089,2.870731 16.6875,2.149504 3.547665,-2.616791 0.709855,-7.799136 2.03125,-11.365876 C 41.15803,8.3439065 41.09544,2.5162518 37.25,2.375 z"
     id="path2997"
     inkscape:connector-curvature="0" />
  <path
     style="fill:#ffffff;fill-opacity:0.46859903"
     d="M 38.25,5.1251298 C 32.31273,6.3406635 26.59796,10.145256 20.25,7.586927 13.704309,5.6232417 8.4195029,11.880995 1.9375,9.2994817 -2.6714828,7.0990063 -1.8074552,11.786069 -1.78125,14.303353 c 0.238874,3.67588 4.951365,2.460546 7.53125,1.685795 5.014195,0.150739 9.257449,4.051983 14.53125,2.40828 4.878947,-1.036885 9.820073,0.400318 14.6875,0.454897 1.8401,1.29228 5.630508,2.582922 5.84375,-0.561931 -0.446575,-4.343552 1.40374,-9.0976603 -0.75,-13.1652642 -0.603028,0.052799 -1.213666,-0.095327 -1.8125,0 z"
     id="path3765"
     inkscape:connector-curvature="0" />
  <path
     style="fill:#ffffff;fill-opacity:0.55555558"
     d="m 40.718277,9.4834784 c -1.07546,0.021508 -4.484789,0.5970756 -7.101198,1.0591506 -4.893904,0.864295 -6.057764,0.874797 -11.661281,0.392278 -5.587827,-0.48117 -6.691066,-0.436719 -10.930275,0.392277 -3.3994605,0.664777 -5.7475656,0.857688 -8.3543508,0.627645 -1.97424274,-0.17422 -4.3860339,-0.35305 -4.3860339,-0.35305 0,0 -0.3947694,1.547003 0.1392392,2.118302 2.43593465,0.09039 8.5234907,-0.659567 12.6011455,0.470734 3.995605,0.836831 5.134344,0.887293 11.104324,0.431505 5.569586,-0.425219 7.062354,0.362346 10.930275,0.196139 7.809862,-0.335582 8.151827,2.639895 7.936633,-0.431506 0,0 0.435551,-4.6997326 0.03481,-4.864247 -0.05009,-0.020567 -0.159652,-0.042304 -0.313288,-0.03923 z"
     id="path2993"
     inkscape:connector-curvature="0" />
</svg>
